[img]http://a.imageshack.us/img405/1285/96b2de3d9e9fe6aebab16bb.png[/img]
[code]
Plot:
Terry Hoitz's past mistakes in the line of duty and Allen Gamble's reluctance to take risks have landed them the roles of the "Other Guys", disgraced New York City police detectives relegated to filling out paperwork for cocky hero cops Danson and Highsmith. The mismatched duo must look past their differences when they take on a high-profile investigation of shady capitalist David Ershon and attempt to fill the shoes of the notoriously reckless officers they idolize.
 
http://www.imdb.com/title/tt1386588/


Complete name                    : The.Other.Guys.2010.TS.XviD-TA.avi

Sources: 
Audio                            : TA's Kracker, Synced by IMAGiNE (Thanks to both)
Video                            : Hogz

Format                           : AVI
Format/Info                      : Audio Video Interleave
File size                        : 665 MiB
Duration                         : 1h 41mn
Overall bit rate                 : 919 Kbps
Writing library                  : VirtualDub build 32661/release

Video
ID                               : 0
Format                           : MPEG-4 Visual
Format profile                   : AdvancedSimple@L5
Format settings, BVOP            : Yes
Format settings, QPel            : No
Format settings, GMC             : No warppoints
Format settings, Matrix          : Default (H.263)
Muxing mode                      : Packed bitstream
Codec ID                         : XVID
Codec ID/Hint                    : XviD
Duration                         : 1h 41mn
Bit rate                         : 779 Kbps
Width                            : 640 pixels
Height                           : 298 pixels
Display aspect ratio             : 2.2:1
Frame rate                       : 30.000 fps
Resolution                       : 24 bits
Colorimetry                      : 4:2:0
Scan type                        : Progressive
Bits/(Pixel*Frame)               : 0.136
Stream size                      : 564 MiB (85%)
Writing library                  : XviD 1.2.1 (UTC 2008-12-04)

Audio
ID                               : 1
Format                           : MPEG Audio
Format version                   : Version 1
Format profile                   : Layer 3
Codec ID                         : 55
Codec ID/Hint                    : MP3
Duration                         : 1h 41mn
Bit rate mode                    : Constant
Bit rate                         : 128 Kbps
Channel(s)                       : 2 channels
Sampling rate                    : 44.1 KHz
Resolution                       : 16 bits
Stream size                      : 92.6 MiB (14%)
Alignment                        : Split accross interleaves
Interleave, duration             : 33 ms (1.00 video frame)
Interleave, preload duration     : 500 ms


NEEDS: We are looking for Audio Syncers and any other Exclusive CAM sources. Both Audio and Video
All deotting done by "dedots crew" find us on irc Efnet channel #ddcrew

Contact us: ta_rg@hushmail.com

Greetz: IMAGiNE - PrisM - KINGDOM - LU - SLUGGER - Relizlab - ELEKTRI4KA
and all those that contribute...
[/code]
Screens:
[img]http://a.imageshack.us/img443/8349/2uqelc9.png[/img]
[img]http://a.imageshack.us/img691/3235/5cbyus.png[/img]
[img]http://a.imageshack.us/img138/8118/2w2f1g4.png[/img]
[img]http://a.imageshack.us/img295/2347/2pq8jt0.png[/img]